PathFileType	4	(X/Y/Z)	 s02c0202.trc
DataRate	CameraRate	NumFrames	NumMarkers	Units	OrigDataRate	OrigDataStartFrame	OrigNumFrames
200	200	4	50	mm	200	751	2000
Frame#	Time	racr			lacr			c7			jug			rlel			rdr			llel			ldr			s2			lic			ric			lasi			rasi			rpsi			lpsi			rgt			lgt			rth1			rth2			rth3			rth4			rlfc			rmfc			rsh1			rsh2			rsh3			rsh4			rlmal			rmmal			rtoe			rmt5			rmt1			lth1			lth2			lth4			lth3			llfc			lmfc			lsh1			lsh2			lsh3			lsh4			llmal			lmmal			lcal			ltoe			lmt5			SBIKE			LBIKE			RBIKE			
		X1	Y1	Z1	X2	Y2	Z2	X3	Y3	Z3	X4	Y4	Z4	X5	Y5	Z5	X6	Y6	Z6	X7	Y7	Z7	X8	Y8	Z8	X9	Y9	Z9	X10	Y10	Z10	X11	Y11	Z11	X12	Y12	Z12	X13	Y13	Z13	X14	Y14	Z14	X15	Y15	Z15	X16	Y16	Z16	X17	Y17	Z17	X18	Y18	Z18	X19	Y19	Z19	X20	Y20	Z20	X21	Y21	Z21	X22	Y22	Z22	X23	Y23	Z23	X24	Y24	Z24	X25	Y25	Z25	X26	Y26	Z26	X27	Y27	Z27	X28	Y28	Z28	X29	Y29	Z29	X30	Y30	Z30	X31	Y31	Z31	X32	Y32	Z32	X33	Y33	Z33	X34	Y34	Z34	X35	Y35	Z35	X36	Y36	Z36	X37	Y37	Z37	X38	Y38	Z38	X39	Y39	Z39	X40	Y40	Z40	X41	Y41	Z41	X42	Y42	Z42	X43	Y43	Z43	X44	Y44	Z44	X45	Y45	Z45	X46	Y46	Z46	X47	Y47	Z47	X48	Y48	Z48	X49	Y49	Z49	X50	Y50	Z50	
751	3.7550	514.067654	1205.418723	-113.588259	563.791791	1212.341240	-436.766317	530.012830	1253.113159	-281.625281	478.180991	1124.085241	-282.408683	508.133885	955.234118	-33.744544	690.707248	882.916460	-114.475059	509.949440	984.869040	-602.196523	681.712956	881.998173	-511.161962	4.565770	1120.076941	-347.631494	138.853975	1086.630467	-481.705859	120.063758	1116.530107	-188.263984	177.606629	1055.934588	-450.040827	174.839411	1093.427502	-212.431786	20.790063	1150.603556	-305.134143	32.797032	1156.435470	-389.897233	107.753662	1048.802358	-153.458964	85.910783	1007.296321	-506.901190	196.472532	1005.743390	-145.323867	279.519293	975.874224	-149.584634	337.347739	916.944626	-125.938385	296.229078	997.707865	-175.485688	433.395613	804.126831	-158.624464	425.893640	782.708184	-268.592321	427.728358	690.379113	-139.113891	429.883413	602.223178	-155.578935	391.222392	525.055506	-149.937856	441.647697	601.582059	-193.483893	349.867839	413.049076	-153.146100	357.439835	429.890611	-236.072986	565.566341	364.127427	-184.896904	456.439560	345.682965	-126.256611	483.349699	362.603511	-234.200435	210.251057	931.769767	-511.625310	288.408835	894.058849	-504.388609	308.832705	918.860934	-486.695224	337.323446	819.376336	-501.559672	401.106555	746.075893	-476.080011	392.900112	715.500098	-371.880291	347.974698	658.695233	-497.617633	305.486010	584.640946	-484.015330	229.426758	536.925137	-491.842320	319.313692	574.372308	-446.868181	144.516037	468.220480	-486.812507	156.081901	454.734731	-408.764282	68.448879	479.327042	-446.304186	231.603787	243.975174	-430.237916	152.416219	309.590318	-498.739298	-161.872549	860.629837	-308.594307	37.288312	86.200091	-514.341923	34.047667	82.306891	-114.646744	
752	3.7600	514.758264	1205.077838	-113.340757	563.772557	1211.565137	-437.601624	530.787529	1252.941971	-282.023279	477.503855	1124.505315	-282.778076	508.035175	954.866555	-33.841240	690.654169	882.888348	-114.498338	509.564001	983.735715	-602.211691	681.521139	881.401272	-510.840193	4.879094	1120.296090	-346.040768	138.595682	1087.708887	-480.898349	121.100560	1116.069289	-187.176560	177.500268	1056.839264	-449.585993	175.809729	1092.768095	-211.416421	21.544307	1150.679666	-303.789844	33.184592	1156.578788	-388.736336	108.382351	1047.553691	-152.674108	85.600332	1008.481097	-506.359553	197.363979	1003.442716	-144.388406	279.554770	971.245951	-150.058522	336.341288	911.586782	-125.674851	296.828130	993.570716	-174.578120	429.920316	797.559777	-158.648257	422.376274	776.725975	-268.164197	425.027573	683.736284	-138.845073	428.338519	595.896701	-154.765770	390.994225	518.026102	-148.659293	440.042090	595.289104	-192.742958	351.375998	405.289321	-151.918052	358.335713	421.926265	-234.701520	566.678035	353.938200	-185.524821	457.880201	336.713751	-125.928655	484.552770	352.898169	-234.230811	210.646062	934.613158	-511.156330	289.412540	898.107773	-504.188703	309.415619	923.166127	-486.435018	339.470387	824.208070	-501.773053	404.178631	751.224325	-476.697282	395.868363	719.876031	-372.168220	350.071717	664.423265	-498.119326	306.375167	591.065281	-484.459287	229.507663	544.610220	-492.140882	320.185346	580.155904	-447.168544	143.631159	477.211903	-486.927334	155.415946	463.843144	-408.967299	67.362988	488.154370	-446.270830	231.413151	253.581558	-430.239624	151.928850	318.774074	-498.741275	-161.875074	860.641342	-308.582658	37.303644	86.217029	-514.351015	34.058855	82.309209	-114.628093	
753	3.7650	515.560529	1205.071101	-113.154637	563.668395	1210.993960	-438.641453	531.681180	1252.971189	-282.651742	476.730262	1125.236762	-283.239213	508.013769	954.687341	-34.003474	690.588073	882.864410	-114.532976	509.285889	982.675280	-602.270780	681.370965	880.755576	-510.533896	4.583944	1120.815846	-343.439439	137.918423	1089.488950	-478.974882	122.144079	1115.482160	-186.006487	176.951507	1058.397431	-448.039715	176.764640	1092.086477	-210.302864	22.352202	1150.859851	-302.160799	33.127268	1157.064394	-386.694984	108.960942	1046.326636	-151.925026	85.367852	1009.823694	-505.798404	198.341740	1001.148608	-143.332176	279.267397	966.716583	-148.528599	335.274253	906.178228	-125.352089	297.394417	988.947292	-174.007279	426.128025	790.947866	-158.469147	416.536786	767.417862	-267.993244	422.285842	677.407315	-138.445714	426.507987	589.326488	-153.919331	390.215501	511.060766	-147.467918	438.092548	588.912078	-191.886911	352.500883	397.466917	-150.541871	359.217449	414.953796	-232.977377	567.357922	343.751381	-186.152509	458.828972	327.676448	-125.694565	484.832909	343.820022	-234.021683	211.122463	937.604579	-510.539386	290.414847	902.350065	-503.905595	310.112852	927.553942	-486.103921	341.985028	829.391375	-502.495179	407.305717	756.646786	-477.336674	400.151376	724.867043	-372.015140	352.352288	670.462251	-498.639828	307.587743	597.698987	-484.955607	229.950047	552.456917	-492.388837	321.432530	586.371307	-447.739683	143.046845	486.219800	-487.015247	155.168038	472.848477	-409.016417	66.615028	496.889797	-446.192146	231.708398	263.079043	-430.146016	151.846840	327.974364	-498.722176	-161.871575	860.607007	-308.432111	37.327766	86.255923	-514.344719	34.046607	82.327218	-114.606009	
754	3.7700	516.505135	1205.268094	-112.929117	563.441644	1210.670701	-440.003598	532.534217	1253.185995	-283.365784	476.050449	1126.119669	-283.688842	508.088462	954.738059	-34.239665	690.539508	882.869456	-114.592040	509.149389	981.637938	-602.460278	681.237250	880.158943	-510.317797	4.924919	1121.002083	-341.537243	137.668513	1090.958571	-477.943016	123.277889	1114.903125	-184.746824	176.934772	1059.752613	-447.416263	177.737606	1091.481293	-209.242456	23.059057	1150.997417	-300.257899	32.999035	1157.775706	-384.350451	109.604159	1045.051541	-151.087115	85.265168	1011.253650	-505.187116	199.222399	998.634439	-142.201353	279.378049	962.299020	-147.934090	333.937214	900.379112	-124.820881	297.841385	984.189026	-173.192702	422.165656	784.117240	-158.067263	414.312676	762.716007	-266.085760	418.919677	670.837647	-137.673446	424.738696	582.708611	-153.026280	389.021683	504.303084	-146.237479	435.705893	582.527012	-190.827047	353.027545	389.613860	-149.145127	360.325893	408.414546	-231.021393	567.708750	334.152862	-186.192558	459.177724	318.689691	-125.344634	484.800940	334.986785	-233.420314	211.640696	940.702020	-509.941168	291.508051	906.664863	-503.673005	310.848991	932.095346	-485.749072	344.225841	834.519527	-502.876470	410.590500	762.328052	-477.896506	405.297815	730.381857	-371.612806	354.891597	676.585184	-499.100984	309.125215	604.500283	-485.333029	230.780984	560.387294	-492.540977	322.979159	592.783175	-448.117467	142.997405	495.251013	-487.013661	155.315926	481.838450	-408.976366	66.369520	505.701971	-446.002905	232.482818	272.611928	-430.029609	152.220434	337.140616	-498.653123	-161.807578	860.603536	-308.439270	37.338767	86.305278	-514.311066	34.068670	82.433238	-114.639520	
